<?xml version="1.0" encoding="UTF-8" standalone="no"?>
<svg
   xmlns:dc="http://purl.org/dc/elements/1.1/"
   xmlns:cc="http://creativecommons.org/ns#"
   xmlns:rdf="http://www.w3.org/1999/02/22-rdf-syntax-ns#"
   xmlns:svg="http://www.w3.org/2000/svg"
   xmlns="http://www.w3.org/2000/svg"
   viewBox="0 0 601.47998 141.09332"
   height="141.09332"
   width="601.47998"
   xml:space="preserve"
   id="svg2"
   version="1.1"><metadata
     id="metadata8"><rdf:RDF><cc:Work
         rdf:about=""><dc:format>image/svg+xml</dc:format><dc:type
           rdf:resource="http://purl.org/dc/dcmitype/StillImage" /></cc:Work></rdf:RDF></metadata><defs
     id="defs6" /><g
     transform="matrix(1.3333333,0,0,-1.3333333,0,141.09333)"
     id="g10"><g
       transform="scale(0.1)"
       id="g12"><path
         id="path14"
         style="fill:#f68627;fill-opacity:1;fill-rule:nonzero;stroke:none"
         d="m 3662.75,437.477 -0.37,164.152 141.98,82.41 142.35,-81.758 0.37,-164.16 -141.97,-82.402 -142.36,81.758" /><path
         id="path16"
         style="fill:#565e6c;fill-opacity:1;fill-rule:nonzero;stroke:none"
         d="m 3996.73,426.539 -0.44,191.524 165.65,96.144 166.07,-95.391 0.43,-191.515 -165.63,-96.141 -166.08,95.379" /><path
         id="path18"
         style="fill:#757c8b;fill-opacity:1;fill-rule:nonzero;stroke:none"
         d="m 3786.53,95.3672 -0.43,191.5348 165.64,96.141 166.08,-95.391 0.43,-191.5114 L 3952.61,0 3786.53,95.3672" /><path
         id="path20"
         style="fill:#9ba1ab;fill-opacity:1;fill-rule:nonzero;stroke:none"
         d="m 3829.83,748.395 -0.37,164.179 141.98,82.403 142.35,-81.766 0.38,-164.152 -141.98,-82.411 -142.36,81.747" /><path
         id="path22"
         style="fill:#9ba1ab;fill-opacity:1;fill-rule:nonzero;stroke:none"
         d="m 3455.95,169.625 -0.37,164.16 141.98,82.403 142.35,-81.758 0.37,-164.149 -141.97,-82.4138 -142.36,81.7578" /><path
         id="path24"
         style="fill:#b3bbc6;fill-opacity:1;fill-rule:nonzero;stroke:none"
         d="m 4179.37,770.535 -0.43,191.512 165.63,96.133 166.07,-95.391 0.44,-191.492 -165.63,-96.145 -166.08,95.383" /><path
         id="path26"
         style="fill:#565e6c;fill-opacity:1;fill-rule:nonzero;stroke:none"
         d="m 3370.63,479.879 -0.31,136.789 118.32,68.68 118.63,-68.133 0.31,-136.809 -118.32,-68.652 -118.63,68.125" /><path
         id="path28"
         style="fill:#757c8b;fill-opacity:1;fill-rule:nonzero;stroke:none"
         d="m 3542.17,723.727 -0.32,136.796 118.32,68.672 118.63,-68.125 0.3,-136.804 -118.31,-68.664 -118.62,68.125" /><path
         id="path30"
         style="fill:#b3bbc6;fill-opacity:1;fill-rule:nonzero;stroke:none"
         d="m 3172.9,257.82 -0.31,136.785 118.31,68.68 118.63,-68.133 0.3,-136.785 -118.3,-68.683 -118.63,68.136" /><path
         id="path32"
         style="fill:#9ba1ab;fill-opacity:1;fill-rule:nonzero;stroke:none"
         d="m 0,411.441 h 96.3789 c 1.6445,-47.773 41.1871,-71.66 84.0121,-71.66 44.48,0 84.019,28.008 84.019,73.313 0,48.601 -45.308,79.07 -84.019,80.711 -4.942,0 -44.477,0 -86.4847,18.945 C 33.7813,540.758 0,591.832 0,660.191 c 0,109.551 87.3203,176.27 180.391,176.27 99.664,0 176.281,-67.539 177.922,-165.566 h -95.547 c -1.657,47.773 -38.719,69.191 -82.375,69.191 -45.309,0 -84.0121,-26.348 -84.0121,-79.895 0,-47.773 41.1871,-73.3 84.0121,-73.3 4.121,0 44.48,0 85.664,-18.953 60.953,-28 93.902,-86.497 93.902,-154.844 0,-110.383 -86.48,-169.68 -179.566,-169.68 C 80.7305,245.875 1.65625,303.543 0,411.441" /><path
         id="path34"
         style="fill:#9ba1ab;fill-opacity:1;fill-rule:nonzero;stroke:none"
         d="m 858.707,395.797 67.539,-68.379 c -51.894,-51.875 -123.551,-84.004 -203.437,-84.004 -158.977,0 -289.118,115.313 -289.118,296.524 0,173.8 120.254,296.523 289.118,296.523 79.886,0 151.543,-32.129 203.437,-84.844 l -67.539,-67.539 c -34.598,34.59 -83.195,56.008 -135.898,56.008 -118.625,0 -191.098,-84.016 -191.098,-200.148 0,-123.555 84.832,-200.157 191.098,-200.157 52.703,0 101.3,21.426 135.898,56.016" /><path
         id="path36"
         style="fill:#9ba1ab;fill-opacity:1;fill-rule:nonzero;stroke:none"
         d="m 1124.95,401.559 h 140.02 l -70,200.156 z m 171.32,-83.192 h -202.61 l -24.72,-66.719 H 965.16 l 229.81,593.055 230.64,-593.055 h -103.79 l -25.55,66.719" /><path
         id="path38"
         style="fill:#9ba1ab;fill-opacity:1;fill-rule:nonzero;stroke:none"
         d="m 1825.09,348.016 v -96.368 h -309.72 v 576.571 h 96.38 V 348.016 h 213.34" /><path
         id="path40"
         style="fill:#9ba1ab;fill-opacity:1;fill-rule:nonzero;stroke:none"
         d="m 1934.63,251.648 v 96.368 h 384.66 v -96.368 z m 384.66,240.516 h -384.66 v 95.535 h 384.66 z m 0,239.688 h -384.66 v 96.367 h 384.66 v -96.367" /><path
         id="path42"
         style="fill:#f68627;fill-opacity:1;fill-rule:nonzero;stroke:none"
         d="m 2460.14,828.219 h 96.36 V 251.648 h -96.36 v 576.571" /><path
         id="path44"
         style="fill:#f68627;fill-opacity:1;fill-rule:nonzero;stroke:none"
         d="M 3002.12,740.086 H 2881.03 V 251.648 h -95.55 V 740.086 H 2664.4 v 88.133 h 337.72 v -88.133" /></g></g></svg>